<?xml version="1.0" standalone="no"?>
<!DOCTYPE svg PUBLIC "-//W3C//DTD SVG 20010904//EN"
 "http://www.w3.org/TR/2001/REC-SVG-20010904/DTD/svg10.dtd">
<svg version="1.0" xmlns="http://www.w3.org/2000/svg"
 width="500.000000pt" height="500.000000pt" viewBox="0 0 500.000000 500.000000"
 preserveAspectRatio="xMidYMid meet">
<metadata>
Created by potrace 1.11, written by Peter Selinger 2001-2013
</metadata>
<g transform="translate(0.000000,500.000000) scale(0.100000,-0.100000)"
fill="#000000" stroke="none">
<path d="M2901 4562 c-6 -20 -12 -41 -13 -47 -13 -49 -58 -160 -65 -158 -208
39 -482 34 -709 -13 -236 -48 -529 -178 -723 -321 -13 -10 -29 -22 -35 -28 -6
-5 -33 -28 -61 -50 -27 -22 -81 -71 -120 -110 -281 -279 -458 -627 -530 -1040
-24 -141 -25 -498 0 -567 2 -7 6 -31 9 -53 17 -153 126 -446 234 -630 22 -37
113 -170 144 -209 68 -88 283 -289 385 -360 61 -43 113 -77 116 -75 3 2 13 -3
23 -12 23 -20 165 -92 237 -120 29 -11 61 -23 72 -28 37 -17 207 -64 270 -76
162 -30 432 -41 575 -24 217 26 433 91 620 186 133 68 182 95 190 103 3 3 18
14 35 24 16 11 34 23 40 28 5 4 37 29 70 55 63 50 160 139 204 187 14 15 36
39 47 51 12 13 42 50 67 82 159 207 277 448 335 688 44 178 60 322 56 500 -5
204 -24 321 -85 530 -32 112 -129 321 -190 413 -16 24 -29 46 -29 51 0 4 -8
16 -17 27 -10 10 -31 38 -47 62 -16 23 -32 42 -37 42 -4 0 -10 8 -13 18 -8 23
-175 195 -251 257 -33 28 -62 52 -65 55 -20 21 -172 117 -252 159 l-97 52 16
52 c8 29 17 55 20 59 2 5 6 16 8 25 2 10 10 39 18 65 l14 46 -81 32 c-44 18
-85 33 -91 35 -5 1 -17 5 -25 8 -23 9 -95 30 -97 29 -2 0 -17 4 -35 9 -45 14
-68 19 -100 24 -24 4 -29 0 -37 -33z"/>
</g>
</svg>
